<svg width="24" height="24" viewBox="0 0 24 24" fill="none" xmlns="http://www.w3.org/2000/svg">
<path fill-rule="evenodd" clip-rule="evenodd" d="M8.8 18.5769V19.7077C8.8 20.1601 8.8 20.3862 8.7128 20.559C8.63608 20.711 8.51376 20.8345 8.3632 20.912C8.19208 21 7.96808 21 7.52 21H6.88C6.43196 21 6.20794 21 6.03681 20.912C5.88628 20.8345 5.7639 20.711 5.68719 20.559C5.6 20.3862 5.6 20.1601 5.6 19.7077V18.5763C5.13403 18.573 4.86749 18.5541 4.65521 18.4449C4.42942 18.3287 4.24584 18.1434 4.13079 17.9154C4 17.6562 4 17.317 4 16.6385V9.69231C4.00001 6.86538 4.00001 6.46154 4 4.84615V2.42308H9.14696L10.587 0H12.4529L11.0129 2.42308H13.147L14.587 0H16.4529L15.0129 2.42308H20V4.84615C20 6.86538 20 6.86538 20 9.69231V16.6385C20 17.317 20 17.6562 19.8692 17.9154C19.7542 18.1434 19.5706 18.3287 19.3448 18.4449C19.1325 18.5541 18.866 18.573 18.4 18.5763V19.7077C18.4 20.1601 18.4 20.3862 18.3128 20.559C18.2361 20.711 18.1138 20.8345 17.9632 20.912C17.7921 21 17.5681 21 17.12 21H16.48C16.0319 21 15.8079 21 15.6368 20.912C15.4862 20.8345 15.3639 20.711 15.2872 20.559C15.2 20.3862 15.2 20.1601 15.2 19.7077V18.5769H8.8ZM18.4 4.84615H5.6V10.3385C5.6 11.2432 5.6 11.6955 5.77439 12.0411C5.92778 12.345 6.17255 12.5922 6.47362 12.747C6.81587 12.9231 7.26392 12.9231 8.16 12.9231H15.84C16.7361 12.9231 17.1842 12.9231 17.5264 12.747C17.8274 12.5922 18.0722 12.345 18.2256 12.0411C18.4 11.6955 18.4 11.2432 18.4 10.3385V4.84615ZM8.8 15.75C8.8 16.4191 8.26272 16.9615 7.6 16.9615C6.93725 16.9615 6.4 16.4191 6.4 15.75C6.4 15.0809 6.93725 14.5385 7.6 14.5385C8.26272 14.5385 8.8 15.0809 8.8 15.75ZM16.4 16.9615C17.0627 16.9615 17.6 16.4191 17.6 15.75C17.6 15.0809 17.0627 14.5385 16.4 14.5385C15.7373 14.5385 15.2 15.0809 15.2 15.75C15.2 16.4191 15.7373 16.9615 16.4 16.9615Z" fill="black"/>
</svg>
